<svg xmlns="http://www.w3.org/2000/svg" viewBox="0 0 216.5 216.04"><defs><style>.cls-1{fill:#143d50;}.cls-2{fill:#e72429;}</style></defs><g id="Layer_2" data-name="Layer 2"><g id="Layer_1-2" data-name="Layer 1"><path class="cls-1" d="M21.64,215.84V204.42h5.62a2.93,2.93,0,0,1,3.25,2.91,2.58,2.58,0,0,1-2,2.62,2.8,2.8,0,0,1,2.21,2.8,3,3,0,0,1-3.32,3.09Zm6.81-8.17a1.45,1.45,0,0,0-1.6-1.49H23.64v3h3.21a1.43,1.43,0,0,0,1.6-1.47m.23,4.81a1.57,1.57,0,0,0-1.75-1.57H23.64v3.16h3.29a1.54,1.54,0,0,0,1.75-1.59"/><polygon class="cls-1" points="37.85 215.84 37.85 211.09 33.41 204.42 35.71 204.42 38.86 209.31 41.97 204.42 44.27 204.42 39.85 211.09 39.85 215.84 37.85 215.84"/><rect class="cls-1" x="54.51" y="204.42" width="2.94" height="11.42"/><polygon class="cls-1" points="69.67 215.84 64.85 209.23 64.85 215.84 61.9 215.84 61.9 204.42 64.93 204.42 69.56 210.7 69.56 204.42 72.52 204.42 72.52 215.84 69.67 215.84"/><path class="cls-1" d="M76.14,214.23,77.7,212a5.16,5.16,0,0,0,3.64,1.5c1,0,1.63-.39,1.63-.94,0-1.55-6.47-.31-6.47-4.71,0-1.91,1.63-3.62,4.55-3.62a6.93,6.93,0,0,1,4.64,1.59l-1.61,2.1a5.41,5.41,0,0,0-3.34-1.18c-.85,0-1.23.34-1.23.83,0,1.45,6.45.39,6.45,4.63,0,2.3-1.69,3.82-4.75,3.82a7,7,0,0,1-5.07-1.81"/><polygon class="cls-1" points="91.99 215.84 91.99 206.99 88.79 206.99 88.79 204.42 98.11 204.42 98.11 206.99 94.93 206.99 94.93 215.84 91.99 215.84"/><path class="cls-1" d="M108.28,215.83,106.36,212h-1.51v3.83h-2.94V204.42h5.72a3.68,3.68,0,0,1,4,3.8,3.46,3.46,0,0,1-2.28,3.42l2.33,4.19Zm.32-7.63a1.27,1.27,0,0,0-1.42-1.21h-2.33v2.44h2.33a1.26,1.26,0,0,0,1.42-1.23"/><path class="cls-1" d="M115.62,211.21v-6.79h3v6.69a2.41,2.41,0,0,0,4.81,0v-6.69h3v6.78c0,2.84-1.73,4.84-5.38,4.84s-5.4-2-5.4-4.83"/><path class="cls-1" d="M130.26,210.13a5.83,5.83,0,0,1,6.18-5.9,5.27,5.27,0,0,1,5,3.06l-2.53,1.2a2.76,2.76,0,0,0-2.45-1.66,3.31,3.31,0,0,0,0,6.61,2.74,2.74,0,0,0,2.45-1.66l2.53,1.2a5.29,5.29,0,0,1-5,3.06,5.84,5.84,0,0,1-6.18-5.91"/><polygon class="cls-1" points="147.63 215.84 147.63 206.99 144.43 206.99 144.43 204.42 153.76 204.42 153.76 206.99 150.58 206.99 150.58 215.84 147.63 215.84"/><path class="cls-1" d="M157.56,211.21v-6.79h3v6.69a2.41,2.41,0,0,0,4.81,0v-6.69h3v6.78c0,2.84-1.73,4.84-5.38,4.84s-5.4-2-5.4-4.83"/><path class="cls-1" d="M179.15,215.83,177.23,212h-1.5v3.83h-2.95V204.42h5.72a3.68,3.68,0,0,1,4,3.8,3.45,3.45,0,0,1-2.27,3.42l2.32,4.19Zm.33-7.63a1.27,1.27,0,0,0-1.42-1.21h-2.33v2.44h2.33a1.26,1.26,0,0,0,1.42-1.23"/><polygon class="cls-1" points="186.49 215.84 186.49 204.42 194.86 204.42 194.86 206.99 189.43 206.99 189.43 208.77 194.74 208.77 194.74 211.33 189.43 211.33 189.43 213.27 194.86 213.27 194.86 215.84 186.49 215.84"/><path class="cls-2" d="M69.15,55a15.93,15.93,0,0,0-14-15.8,63.41,63.41,0,0,0,0,31.6,15.93,15.93,0,0,0,14-15.8"/><path class="cls-2" d="M78.41,50a5,5,0,1,0,5,5,5,5,0,0,0-5-5"/><path class="cls-2" d="M147.35,55a15.93,15.93,0,0,0,14,15.8,63.41,63.41,0,0,0,0-31.6,15.92,15.92,0,0,0-14,15.8"/><path class="cls-2" d="M138.09,50a5,5,0,1,0,5,5,5,5,0,0,0-5-5"/><path class="cls-2" d="M108.15,94.22a15.93,15.93,0,0,0-15.8,14,63.41,63.41,0,0,0,31.6,0,15.94,15.94,0,0,0-15.8-14"/><path class="cls-2" d="M108.15,80a5,5,0,1,0,5,5,5,5,0,0,0-5-5"/><path class="cls-2" d="M108.15,16A15.94,15.94,0,0,0,124,2a63.41,63.41,0,0,0-31.6,0,15.93,15.93,0,0,0,15.8,14"/><path class="cls-2" d="M108.15,20.24a5,5,0,1,0,5,5,5,5,0,0,0-5-5"/><path class="cls-2" d="M135.85,82.67a15.93,15.93,0,0,0-1.3,21,63.05,63.05,0,0,0,22.33-22.34,15.94,15.94,0,0,0-21,1.3"/><path class="cls-2" d="M125.77,72.6a5,5,0,1,0,7.06,0,5,5,0,0,0-7.06,0"/><path class="cls-2" d="M80.54,27.37a15.93,15.93,0,0,0,1.3-21A63.24,63.24,0,0,0,59.5,28.67a15.93,15.93,0,0,0,21-1.3"/><path class="cls-2" d="M83.55,30.38a5,5,0,1,0,7.07,0,5,5,0,0,0-7.07,0"/><path class="cls-2" d="M135.81,27.32a15.93,15.93,0,0,0,21,1.29A63.27,63.27,0,0,0,134.52,6.28a15.93,15.93,0,0,0,1.29,21"/><path class="cls-2" d="M132.8,37.4a5,5,0,1,0-7.07,0,5,5,0,0,0,7.07,0"/><path class="cls-2" d="M80.51,82.61a15.94,15.94,0,0,0-21-1.3,63.16,63.16,0,0,0,22.34,22.34,15.93,15.93,0,0,0-1.3-21"/><path class="cls-2" d="M83.53,72.54a5,5,0,1,0,7.06,0,5,5,0,0,0-7.06,0"/><path class="cls-2" d="M25.93,178.35c0,7.91-5.13,10.84-12.89,10.84h-.15C5.13,189.19,0,186.34,0,178.35V147.59c0-7.62,5.13-10.85,12.89-10.85H13c7.76,0,12.89,3.23,12.89,10.85v6.07h-8.5V148.9c0-3.59-1.75-4.69-4.46-4.69s-4.47,1.1-4.47,4.69V177c0,3.59,1.76,4.69,4.47,4.69s4.46-1.1,4.46-4.69v-6h8.5Z"/><path class="cls-2" d="M56.05,177.18H46.67l-1.83,11.43H36.63l9.53-51.28H56.85l9.67,51.28H57.88Zm-1.1-7-3.59-22.79-3.59,22.79Z"/><polygon class="cls-2" points="78.1 188.61 78.1 137.33 86.6 137.33 97.37 169.05 97.37 137.33 105.13 137.33 105.13 188.61 97.08 188.61 85.87 155.28 85.87 188.61 78.1 188.61"/><polygon class="cls-2" points="135.76 188.61 126.39 188.61 116.72 137.33 125.36 137.33 131.29 175.35 137.23 137.33 145.43 137.33 135.76 188.61"/><path class="cls-2" d="M170.78,177.18h-9.37l-1.83,11.43h-8.21l9.52-51.28h10.7l9.67,51.28h-8.65Zm-1.1-7-3.59-22.79-3.58,22.79Z"/><path class="cls-2" d="M208,152.34v-3.88c0-3.22-1.83-4.39-4.32-4.39s-4.32,1.17-4.32,4.39V152c0,2.64.88,3.81,3.3,5.2l6,3.37c4.91,2.78,7.84,5.06,7.84,10.55v7.4c0,7.91-4.91,10.69-12.67,10.69h-.15c-7.76,0-12.67-2.71-12.67-10.69v-5.43h8.35v4.26c0,3.15,1.83,4.54,4.4,4.54s4.39-1.39,4.39-4.54v-4c0-2.64-.81-4-3.37-5.35l-5.93-3.37c-5-2.86-7.84-5.2-7.84-10.55v-6.74c0-7.62,5.57-10.55,12.6-10.55h.15c7,0,12.6,2.93,12.6,10.55v5.05Z"/><path class="cls-2" d="M25.93,178.17C25.93,186.08,20.8,189,13,189h-.15C5.13,189,0,186.15,0,178.17V147.4c0-7.62,5.13-10.84,12.89-10.84H13c7.76,0,12.89,3.22,12.89,10.84v6.08H17.44v-4.76c0-3.59-1.76-4.69-4.47-4.69s-4.47,1.1-4.47,4.69v28.13c0,3.59,1.76,4.69,4.47,4.69s4.47-1.1,4.47-4.69v-6h8.49Z"/><path class="cls-2" d="M56.05,177H46.67l-1.83,11.43H36.63l9.53-51.28H56.85l9.67,51.28H57.88ZM55,170l-3.59-22.79L47.77,170Z"/><polygon class="cls-2" points="78.1 188.43 78.1 137.15 86.6 137.15 97.37 168.87 97.37 137.15 105.13 137.15 105.13 188.43 97.08 188.43 85.87 155.09 85.87 188.43 78.1 188.43"/><polygon class="cls-2" points="135.76 188.43 126.39 188.43 116.72 137.15 125.36 137.15 131.29 175.17 137.23 137.15 145.43 137.15 135.76 188.43"/><path class="cls-2" d="M170.78,177h-9.37l-1.84,11.43h-8.2l9.52-51.28h10.7l9.67,51.28h-8.65Zm-1.1-7-3.59-22.79L162.5,170Z"/><path class="cls-2" d="M208,152.16v-3.88c0-3.22-1.83-4.39-4.32-4.39s-4.32,1.17-4.32,4.39v3.52c0,2.64.88,3.81,3.3,5.2l6,3.37c4.91,2.78,7.84,5,7.84,10.55v7.4c0,7.91-4.91,10.69-12.67,10.69h-.15c-7.76,0-12.67-2.71-12.67-10.69v-5.43h8.35v4.25c0,3.15,1.83,4.55,4.39,4.55s4.4-1.4,4.4-4.55v-4c0-2.63-.81-4-3.37-5.34l-5.93-3.37c-5-2.86-7.84-5.2-7.84-10.55v-6.74c0-7.62,5.57-10.55,12.6-10.55h.14c7,0,12.6,2.93,12.6,10.55v5Z"/></g></g></svg>